<svg xmlns="http://www.w3.org/2000/svg" width="130" height="130" viewBox="0 0 130 130">
  <g id="Grupo_88" data-name="Grupo 88" transform="translate(-575 -1022)">
    <path id="Sustracción_2" data-name="Sustracción 2" d="M65,130a64.7,64.7,0,0,1-36.342-11.1A65.19,65.19,0,0,1,5.108,90.3,64.914,64.914,0,0,1,11.1,28.658,65.19,65.19,0,0,1,39.7,5.108,64.914,64.914,0,0,1,101.342,11.1a65.19,65.19,0,0,1,23.55,28.6,64.914,64.914,0,0,1-5.993,61.643,65.19,65.19,0,0,1-28.6,23.55A64.593,64.593,0,0,1,65,130ZM45.507,32.1a5.083,5.083,0,0,0-3.483,1.41,4.937,4.937,0,0,0-1.524,3.6V92.893a4.936,4.936,0,0,0,1.524,3.6,5.084,5.084,0,0,0,3.484,1.41,4.935,4.935,0,0,0,2.47-.664L96.884,69.343a5,5,0,0,0,0-8.687L47.977,32.765A4.93,4.93,0,0,0,45.507,32.1Z" transform="translate(575 1022)" fill="#01ffa2"/>
  </g>
</svg>
